<svg xmlns="http://www.w3.org/2000/svg" viewBox="0 0 670.53 134.47"><defs><style>.cls-1,.cls-3{fill:#fff;}.cls-2{fill:#6a63e0;}.cls-3{opacity:0.32;}</style></defs><g id="Camada_2" data-name="Camada 2"><g id="Camada_1-2" data-name="Camada 1"><path class="cls-1" d="M159.88,19h16.51l28.69,70.07h1.06L234.84,19h16.5v90.14H238.4V43.89h-.83L211,109H200.24L173.66,43.85h-.84v65.27H159.88Z"/><path class="cls-1" d="M278.41,134.47A28.67,28.67,0,0,1,273,134a17.89,17.89,0,0,1-3.61-1l3.17-10.78a21.37,21.37,0,0,0,6.43.83,7.72,7.72,0,0,0,5-2.11,16.33,16.33,0,0,0,3.85-6.47L289.5,110,264.77,41.52h14.08L296,94h.71L313.8,41.52h14.13l-27.86,76.62a30.9,30.9,0,0,1-4.93,9,19.3,19.3,0,0,1-7.13,5.52A23.23,23.23,0,0,1,278.41,134.47Z"/><path class="cls-2" d="M341.35,109.12V19h33q9.6,0,15.89,3.15a21.85,21.85,0,0,1,9.42,8.49,23.47,23.47,0,0,1,3.13,12,19.85,19.85,0,0,1-2.07,9.49,16.89,16.89,0,0,1-5.53,6.16,24.24,24.24,0,0,1-7.59,3.36v.88a18.21,18.21,0,0,1,8.78,2.89A21,21,0,0,1,403.5,73a23.37,23.37,0,0,1,2.82,11.88,23.86,23.86,0,0,1-3.24,12.39,22.16,22.16,0,0,1-10,8.67q-6.74,3.19-17.21,3.19ZM355,58h18.22a18.92,18.92,0,0,0,8.26-1.76,14.55,14.55,0,0,0,5.85-5,13,13,0,0,0,2.18-7.54,12.52,12.52,0,0,0-3.92-9.38q-3.92-3.78-12-3.78H355Zm0,39.48h19.63q9.78,0,14-3.79a12.17,12.17,0,0,0,4.23-9.46,14.85,14.85,0,0,0-2.16-7.84,15.54,15.54,0,0,0-6.14-5.67,19.87,19.87,0,0,0-9.44-2.12H355Z"/><path class="cls-2" d="M449.85,110.49a31.12,31.12,0,0,1-16.6-4.36,29.44,29.44,0,0,1-11-12.19,40.51,40.51,0,0,1-3.92-18.31,40.84,40.84,0,0,1,3.92-18.4,29.39,29.39,0,0,1,11-12.24,33.83,33.83,0,0,1,33.19,0,29.39,29.39,0,0,1,11,12.24,40.84,40.84,0,0,1,3.92,18.4,40.51,40.51,0,0,1-3.92,18.31,29.44,29.44,0,0,1-11,12.19A31.08,31.08,0,0,1,449.85,110.49Zm0-11a15.78,15.78,0,0,0,10.21-3.26,19.25,19.25,0,0,0,6-8.67,34.72,34.72,0,0,0,2-11.93,34.75,34.75,0,0,0-2-11.9,19.53,19.53,0,0,0-6-8.74,15.63,15.63,0,0,0-10.21-3.3,15.81,15.81,0,0,0-10.28,3.3,19.49,19.49,0,0,0-6,8.74,35,35,0,0,0-1.95,11.9,35,35,0,0,0,1.95,11.93,19.21,19.21,0,0,0,6,8.67A16,16,0,0,0,449.89,99.44Z"/><path class="cls-2" d="M515.69,110.62a27.38,27.38,0,0,1-11.62-2.4,19.32,19.32,0,0,1-8.21-7,20,20,0,0,1-3-11.22,18.19,18.19,0,0,1,2.2-9.42A16.25,16.25,0,0,1,501,74.75a30.79,30.79,0,0,1,8.36-3.26,83.52,83.52,0,0,1,9.42-1.67q6.08-.7,9.86-1.17a14.19,14.19,0,0,0,5.5-1.52,3.71,3.71,0,0,0,1.72-3.43v-.31q0-5.76-3.24-8.93T523,51.29q-6.64,0-10.46,2.92a16,16,0,0,0-5.26,6.5l-12.36-2.82a23.79,23.79,0,0,1,6.44-10,26.33,26.33,0,0,1,9.8-5.55,39,39,0,0,1,11.66-1.73,42.48,42.48,0,0,1,8.61.94A25.52,25.52,0,0,1,540,45a19,19,0,0,1,6.54,7.15q2.55,4.65,2.55,12v44.89H536.2V99.88h-.53a18.69,18.69,0,0,1-3.83,5,20.41,20.41,0,0,1-6.55,4.09A25.57,25.57,0,0,1,515.69,110.62Zm2.86-10.57a19,19,0,0,0,9.35-2.15,15.33,15.33,0,0,0,6-5.66,14.63,14.63,0,0,0,2-7.5V76a6.71,6.71,0,0,1-2.7,1.3,37.22,37.22,0,0,1-4.56,1c-1.7.28-3.36.53-5,.75l-4,.55a32.92,32.92,0,0,0-7,1.63,12,12,0,0,0-5,3.28,9.4,9.4,0,0,0,1.74,13A15.87,15.87,0,0,0,518.55,100.05Z"/><path class="cls-2" d="M566.57,109.12V41.52h12.72V52.26H580a16.43,16.43,0,0,1,6.53-8.61,18.63,18.63,0,0,1,10.63-3.15c.82,0,1.8,0,2.93.09s2,.13,2.66.22V53.4a24.54,24.54,0,0,0-2.82-.51,29,29,0,0,0-4-.28,17.12,17.12,0,0,0-8.29,2,14.67,14.67,0,0,0-7.86,13.27v41.28Z"/><path class="cls-2" d="M637,110.44a26,26,0,0,1-14.59-4.2,28.11,28.11,0,0,1-10-12q-3.63-7.81-3.63-18.77t3.68-18.75a27.91,27.91,0,0,1,10.1-11.93,26.3,26.3,0,0,1,14.57-4.13q6.29,0,10.14,2.09a18.58,18.58,0,0,1,6,4.86,43,43,0,0,1,3.32,4.88h.79V19h13.16v90.14H657.68V98.6h-1.1a35.6,35.6,0,0,1-3.41,4.93,19.24,19.24,0,0,1-6.1,4.84A21.2,21.2,0,0,1,637,110.44Zm2.9-11.22a15.37,15.37,0,0,0,9.62-3,18.59,18.59,0,0,0,6-8.38,35.11,35.11,0,0,0,2-12.5,34.38,34.38,0,0,0-2-12.33,18.14,18.14,0,0,0-5.94-8.23A17.4,17.4,0,0,0,630,54.9a18.6,18.6,0,0,0-6,8.4,33.86,33.86,0,0,0-2,12,34.59,34.59,0,0,0,2,12.19,19.14,19.14,0,0,0,6,8.56A15.34,15.34,0,0,0,639.94,99.22Z"/><circle class="cls-2" cx="64.05" cy="64.05" r="64.05"/><path class="cls-3" d="M90.13,70H38A14.79,14.79,0,0,0,23.18,84.83v28.53a64,64,0,0,0,81.74,0V84.83A14.79,14.79,0,0,0,90.13,70Z"/><path class="cls-3" d="M80.12,91H48a11,11,0,0,0-11,11V122.1a64.07,64.07,0,0,0,54.14,0V102A11,11,0,0,0,80.12,91Z"/><path class="cls-3" d="M70.72,111.88H57.38a9.78,9.78,0,0,0-9.78,9.78V126a64.33,64.33,0,0,0,32.91,0v-4.3A9.78,9.78,0,0,0,70.72,111.88Z"/><path class="cls-3" d="M64.05,128.1A64,64,0,0,0,120.67,94V63.91a14.79,14.79,0,0,0-14.79-14.79H22.23A14.8,14.8,0,0,0,7.43,63.91V94A64,64,0,0,0,64.05,128.1Z"/></g></g></svg>